<svg width="21" height="19" viewBox="0 0 21 19" fill="none" xmlns="http://www.w3.org/2000/svg">
<path d="M20.312 18.6556H5.29876C5.01497 18.6556 4.78491 18.4255 4.78491 18.1418V11.0588C4.78491 10.775 5.01497 10.5449 5.29876 10.5449H20.312C20.5958 10.5449 20.8258 10.775 20.8258 11.0588V18.1418C20.8258 18.4255 20.5958 18.6556 20.312 18.6556Z" fill="#5A7A39"/>
<path d="M19.4556 17.7992H4.44237C4.15859 17.7992 3.92853 17.5691 3.92853 17.2853V10.2023C3.92853 9.91854 4.15859 9.68848 4.44237 9.68848H19.4556C19.7394 9.68848 19.9694 9.91854 19.9694 10.2023V17.2853C19.9694 17.5691 19.7394 17.7992 19.4556 17.7992Z" fill="#648940"/>
<path d="M18.5991 16.9427H3.58596C3.30218 16.9427 3.07211 16.7127 3.07211 16.4289V9.34588C3.07211 9.06209 3.30218 8.83203 3.58596 8.83203H18.5991C18.8829 8.83203 19.1129 9.06209 19.1129 9.34588V16.4289C19.113 16.7127 18.883 16.9427 18.5991 16.9427Z" fill="#76A34F"/>
<path d="M18.4091 14.1848V11.5897C18.4091 11.5002 18.3401 11.4272 18.2509 11.4194C17.3541 11.3417 16.6395 10.6088 16.5651 9.68973C16.5579 9.60038 16.4845 9.53101 16.3948 9.53101H5.79022C5.7005 9.53101 5.62719 9.60038 5.61997 9.68973C5.54553 10.6088 4.83097 11.3416 3.93416 11.4194C3.84509 11.4271 3.776 11.5002 3.776 11.5897V14.1848C3.776 14.2742 3.845 14.3472 3.93416 14.355C4.83097 14.4327 5.54553 15.1657 5.61997 16.0847C5.62719 16.174 5.70059 16.2434 5.79022 16.2434H16.3949C16.4847 16.2434 16.558 16.174 16.5652 16.0847C16.6396 15.1657 17.3542 14.4328 18.251 14.355C18.3401 14.3473 18.4091 14.2742 18.4091 14.1848Z" fill="#91B56B"/>
<path d="M11.0925 15.5339C12.5541 15.5339 13.739 14.349 13.739 12.8874C13.739 11.4258 12.5541 10.241 11.0925 10.241C9.63091 10.241 8.44604 11.4258 8.44604 12.8874C8.44604 14.349 9.63091 15.5339 11.0925 15.5339Z" fill="white"/>
<path d="M11.3544 14.5154H10.8306C10.3662 14.5154 9.98834 14.1376 9.98834 13.6731C9.98834 13.5696 10.0723 13.4856 10.1758 13.4856C10.2793 13.4856 10.3633 13.5696 10.3633 13.6731C10.3633 13.9307 10.573 14.1404 10.8306 14.1404H11.3544C11.612 14.1404 11.8216 13.9307 11.8216 13.6731V13.4112C11.8216 13.1536 11.612 12.944 11.3544 12.944H10.8306C10.3662 12.944 9.98834 12.5662 9.98834 12.1018C9.98834 11.6373 10.3662 11.2595 10.8306 11.2595H11.3544C11.8188 11.2595 12.1966 11.6373 12.1966 12.1018C12.1966 12.2053 12.1126 12.2893 12.0091 12.2893C11.9056 12.2893 11.8216 12.2053 11.8216 12.1018C11.8216 11.8441 11.612 11.6345 11.3544 11.6345H10.8306C10.573 11.6345 10.3633 11.8441 10.3633 12.1018C10.3633 12.3594 10.573 12.569 10.8306 12.569H11.3544C11.8188 12.569 12.1966 12.9468 12.1966 13.4112V13.6731C12.1967 14.1376 11.8188 14.5154 11.3544 14.5154Z" fill="#648940"/>
<path d="M11.0925 14.7772C10.989 14.7772 10.905 14.6932 10.905 14.5897V11.1851C10.905 11.0816 10.989 10.9976 11.0925 10.9976C11.196 10.9976 11.28 11.0816 11.28 11.1851V14.5897C11.28 14.6933 11.1961 14.7772 11.0925 14.7772Z" fill="#648940"/>
<path d="M4.7791 11.6268C7.32232 11.6268 9.38401 9.56512 9.38401 7.0219C9.38401 4.47868 7.32232 2.41699 4.7791 2.41699C2.23588 2.41699 0.174194 4.47868 0.174194 7.0219C0.174194 9.56512 2.23588 11.6268 4.7791 11.6268Z" fill="#FFA91A"/>
<path d="M0.85968 7.20966C0.756461 7.20966 0.67218 7.12538 0.67218 7.02216C0.67218 6.91903 0.756461 6.83466 0.85968 6.83466C0.962805 6.83466 1.04718 6.91903 1.04718 7.02216C1.04718 7.12538 0.962805 7.20966 0.85968 7.20966ZM0.93093 6.46444C0.91968 6.46444 0.907493 6.46341 0.895305 6.46069C0.845618 6.45122 0.80343 6.42319 0.775305 6.38194C0.74718 6.34069 0.736868 6.29006 0.746243 6.24131C0.93468 5.27006 1.46999 4.39716 2.25562 3.78403C2.46187 3.62278 2.68499 3.48038 2.91656 3.36216C3.00656 3.31631 3.12281 3.35372 3.16874 3.44372C3.19218 3.48788 3.19593 3.53944 3.17999 3.58716C3.16499 3.63403 3.13218 3.67341 3.08718 3.69591C2.87624 3.80372 2.67374 3.93309 2.48624 4.07934C1.7729 4.63716 1.28531 5.42934 1.11468 6.31059V6.31256C1.09781 6.40059 1.02093 6.46444 0.93093 6.46444Z" fill="#FFC91D"/>
<path d="M7.4129 3.24561C7.93453 3.99214 8.24146 4.89973 8.24146 5.87942C8.24146 8.42267 6.17981 10.4842 3.63665 10.4842C2.65687 10.4842 1.74928 10.1773 1.00284 9.65567C1.83524 10.8469 3.21571 11.6267 4.77918 11.6267C7.32234 11.6267 9.384 9.56501 9.384 7.02186C9.3839 5.45848 8.60409 4.07801 7.4129 3.24561Z" fill="#F79219"/>
<path d="M7.73652 3.49316C8.40787 4.29332 8.81268 5.32457 8.81268 6.4507C8.81268 8.99395 6.75102 11.0555 4.20787 11.0555C3.08174 11.0555 2.05049 10.6507 1.25034 9.97935C2.09502 10.9861 3.36205 11.6267 4.77909 11.6267C7.32224 11.6267 9.3839 9.56507 9.3839 7.02191C9.3839 5.60488 8.7433 4.33785 7.73652 3.49316Z" fill="#EF7816"/>
<path d="M5.19816 9.62383H4.35994C3.67876 9.62383 3.12469 9.06977 3.12469 8.38858C3.12469 8.28508 3.20869 8.20108 3.31219 8.20108C3.41569 8.20108 3.49969 8.28508 3.49969 8.38858C3.49969 8.86295 3.88557 9.24883 4.35994 9.24883H5.19816C5.67254 9.24883 6.05841 8.86295 6.05841 8.38858V7.96942C6.05841 7.49505 5.67254 7.10917 5.19816 7.10917H4.35994C3.67876 7.10917 3.12469 6.55511 3.12469 5.87392C3.12469 5.19273 3.67876 4.63867 4.35994 4.63867H5.19816C5.87935 4.63867 6.43341 5.19273 6.43341 5.87392C6.43341 5.97742 6.34941 6.06142 6.24591 6.06142C6.14241 6.06142 6.05841 5.97742 6.05841 5.87392C6.05841 5.39955 5.67254 5.01367 5.19816 5.01367H4.35994C3.88557 5.01367 3.49969 5.39955 3.49969 5.87392C3.49969 6.3483 3.88557 6.73417 4.35994 6.73417H5.19816C5.87935 6.73417 6.43341 7.28823 6.43341 7.96942V8.38858C6.43341 9.06977 5.87935 9.62383 5.19816 9.62383Z" fill="white"/>
<path d="M4.77911 10.0429C4.67561 10.0429 4.59161 9.95891 4.59161 9.85541V4.40723C4.59161 4.30373 4.67561 4.21973 4.77911 4.21973C4.88261 4.21973 4.96661 4.30373 4.96661 4.40723V9.85541C4.96661 9.95901 4.88261 10.0429 4.77911 10.0429Z" fill="white"/>
<path d="M14.5218 7.57317C16.5179 7.57317 18.1361 5.95497 18.1361 3.95883C18.1361 1.96268 16.5179 0.344482 14.5218 0.344482C12.5256 0.344482 10.9074 1.96268 10.9074 3.95883C10.9074 5.95497 12.5256 7.57317 14.5218 7.57317Z" fill="#76A34F"/>
<path d="M17.0775 1.40312C16.9678 1.29343 16.8522 1.19321 16.7327 1.10059C17.832 2.51837 17.7319 4.56549 16.4302 5.8673C15.1284 7.16912 13.0812 7.26924 11.6635 6.16984C11.7562 6.28937 11.8563 6.40496 11.966 6.51465C13.3775 7.92615 15.6659 7.92615 17.0774 6.51465C18.4889 5.10315 18.489 2.81462 17.0775 1.40312Z" fill="#648940"/>
<path d="M14.1303 5.87421C13.9681 5.87421 13.8061 5.81233 13.6823 5.68868L12.4349 4.44124C12.1876 4.19383 12.1876 3.79277 12.4349 3.54536C12.6823 3.29805 13.0834 3.29805 13.3308 3.54536L14.1303 4.34496L15.7169 2.75824C15.9643 2.51093 16.3654 2.51093 16.6128 2.75824C16.8601 3.00564 16.8601 3.40671 16.6128 3.65411L14.5782 5.68868C14.4545 5.81233 14.2924 5.87421 14.1303 5.87421Z" fill="#FFC91D"/>
<path d="M13.8713 4.08616L13.3308 3.5455L13.3306 3.54541L13.8713 4.08616Z" fill="#377DE2"/>
<path d="M16.6128 2.75848C16.5674 2.7132 16.5158 2.67908 16.462 2.65039C16.59 2.89002 16.5558 3.19339 16.3537 3.39542L14.3192 5.42998C14.1954 5.55364 14.0334 5.61552 13.8712 5.61552C13.7091 5.61552 13.5471 5.55364 13.4233 5.42998L13.6822 5.68892C13.806 5.81258 13.968 5.87445 14.1302 5.87445C14.2924 5.87445 14.4544 5.81258 14.5781 5.68892L16.6127 3.65436C16.8602 3.40686 16.8602 3.00589 16.6128 2.75848Z" fill="#FFA91A"/>
</svg>
